<svg width="48" height="48" viewBox="0 0 48 48" fill="none" xmlns="http://www.w3.org/2000/svg">
<g clip-path="url(#clip0_2_9)">
<path d="M24.5022 20.8795C26.2339 20.5988 27.4102 18.9674 27.1295 17.2357C26.8488 15.5039 25.2174 14.3277 23.4856 14.6084C21.7539 14.8891 20.5777 16.5205 20.8584 18.2522C21.1391 19.984 22.7705 21.1602 24.5022 20.8795Z" fill="#403D3D"/>
<path d="M24 0C19.2533 0 14.6131 1.40758 10.6663 4.04473C6.71954 6.68188 3.6434 10.4302 1.8269 14.8156C0.0103988 19.201 -0.464881 24.0266 0.461164 28.6822C1.38721 33.3377 3.67299 37.6141 7.02945 40.9706C10.3859 44.327 14.6623 46.6128 19.3178 47.5389C23.9734 48.4649 28.799 47.9896 33.1844 46.1731C37.5698 44.3566 41.3181 41.2805 43.9553 37.3337C46.5924 33.3869 48 28.7468 48 24C48 17.6348 45.4714 11.5303 40.9706 7.02944C36.4697 2.52856 30.3652 0 24 0ZM24 11.3684C25.2604 11.3684 26.4925 11.7422 27.5405 12.4424C28.5884 13.1426 29.4052 14.1379 29.8876 15.3024C30.3699 16.4668 30.4961 17.7481 30.2502 18.9843C30.0043 20.2205 29.3974 21.356 28.5061 22.2472C27.6149 23.1384 26.4794 23.7453 25.2432 23.9912C24.0071 24.2371 22.7258 24.1109 21.5613 23.6286C20.3969 23.1463 19.4016 22.3295 18.7014 21.2815C18.0011 20.2335 17.6274 19.0014 17.6274 17.7411C17.627 16.9041 17.7915 16.0752 18.1116 15.3019C18.4317 14.5285 18.9011 13.8258 19.493 13.234C20.0848 12.6422 20.7875 12.1728 21.5608 11.8527C22.3342 11.5326 23.163 11.368 24 11.3684ZM32.5642 28.0358C31.1408 28.8436 29.6201 29.4666 28.039 29.8895L31.1084 32.959C31.5117 33.3622 31.7382 33.9092 31.7382 34.4795C31.7382 35.0498 31.5117 35.5967 31.1084 36C30.7051 36.4032 30.1582 36.6298 29.5879 36.6298C29.0176 36.6298 28.4707 36.4032 28.0674 36L24 31.9326L19.9326 36C19.5294 36.4032 18.9824 36.6298 18.4121 36.6298C17.8418 36.6298 17.2949 36.4032 16.8916 36C16.4884 35.5967 16.2618 35.0498 16.2618 34.4795C16.2618 33.9092 16.4884 33.3622 16.8916 32.959L19.9611 29.8895C18.3799 29.4666 16.8592 28.8436 15.4358 28.0358C14.9333 27.7552 14.5628 27.2865 14.4059 26.7328C14.2489 26.1791 14.3184 25.5857 14.599 25.0832C14.8795 24.5806 15.3482 24.2102 15.902 24.0532C16.4557 23.8963 17.0491 23.9657 17.5516 24.2463C21.8905 26.6779 26.1095 26.6779 30.4484 24.2463C30.9509 23.9657 31.5443 23.8963 32.0981 24.0532C32.6518 24.2102 33.1205 24.5806 33.4011 25.0832C33.6816 25.5857 33.7511 26.1791 33.5942 26.7328C33.4372 27.2865 33.0667 27.7552 32.5642 28.0358Z" fill="#403D3D"/>
</g>
<defs>
<clipPath id="clip0_2_9">
<rect width="48" height="48" fill="white"/>
</clipPath>
</defs>
</svg>
