<svg width="48" height="48" viewBox="0 0 48 48" fill="none" xmlns="http://www.w3.org/2000/svg">
<g clip-path="url(#clip0_2_4)">
<path d="M24 0C10.746 0 0 10.746 0 24C0 37.254 10.746 48 24 48C37.254 48 48 37.254 48 24C48 10.746 37.254 0 24 0ZM36.722 31.934L32.986 31.986C32.986 31.986 32.18 32.144 31.126 31.416C29.728 30.456 28.41 27.958 27.382 28.282C26.34 28.614 26.372 30.862 26.372 30.862C26.372 30.862 26.38 31.258 26.142 31.516C25.884 31.794 25.378 31.766 25.378 31.766H23.704C23.704 31.766 20.012 32.072 16.758 28.68C13.214 24.982 10.082 17.684 10.082 17.684C10.082 17.684 9.898 17.224 10.094 16.988C10.316 16.728 10.914 16.72 10.914 16.72L14.914 16.7C14.914 16.7 15.29 16.766 15.562 16.966C15.784 17.13 15.91 17.438 15.91 17.438C15.91 17.438 16.556 19.076 17.414 20.56C19.086 23.452 19.862 24.086 20.43 23.776C21.258 23.324 21.01 19.688 21.01 19.688C21.01 19.688 21.026 18.368 20.594 17.78C20.258 17.322 19.626 17.186 19.35 17.152C19.124 17.122 19.492 16.598 19.972 16.362C20.692 16.01 21.964 15.99 23.466 16.004C24.636 16.016 24.974 16.088 25.43 16.2C26.81 16.534 26.342 17.822 26.342 20.912C26.342 21.902 26.164 23.294 26.876 23.752C27.184 23.95 27.934 23.782 29.804 20.594C30.694 19.082 31.36 17.306 31.36 17.306C31.36 17.306 31.506 16.99 31.732 16.854C31.964 16.714 32.276 16.758 32.276 16.758L36.486 16.732C36.486 16.732 37.75 16.58 37.956 17.154C38.172 17.754 37.484 19.156 35.764 21.45C32.94 25.218 32.626 24.868 34.972 27.048C37.212 29.13 37.674 30.142 37.752 30.27C38.678 31.812 36.722 31.934 36.722 31.934Z" fill="#403D3D"/>
</g>
<defs>
<clipPath id="clip0_2_4">
<rect width="48" height="48" fill="white"/>
</clipPath>
</defs>
</svg>
