<svg width="48" height="48" viewBox="0 0 48 48" fill="none" xmlns="http://www.w3.org/2000/svg">
<g clip-path="url(#clip0_2_7)">
<path d="M24 0C37.2553 0 48 10.7447 48 24C48 37.2553 37.2553 48 24 48C10.7447 48 0 37.2553 0 24C0 10.7447 10.7447 0 24 0ZM32.279 33.7826C32.7203 32.4282 34.7885 18.9297 35.0442 16.2699C35.1214 15.4643 34.8668 14.929 34.368 14.6901C33.7649 14.4 32.8717 14.545 31.8355 14.9186C30.4143 15.431 12.2452 23.1454 11.1955 23.592C10.2 24.0146 9.25878 24.4758 9.25878 25.1437C9.25878 25.6132 9.53739 25.8772 10.3054 26.1517C11.1047 26.4365 13.1176 27.047 14.3061 27.3746C15.4508 27.6908 16.7541 27.4163 17.4845 26.9624C18.2588 26.4814 27.1941 20.5023 27.8358 19.9784C28.4765 19.4546 28.9878 20.1256 28.464 20.6504C27.9402 21.1743 21.8066 27.1273 20.9979 27.9517C20.016 28.9523 20.713 29.9896 21.3715 30.4049C22.1238 30.8786 27.5343 34.5078 28.3492 35.0901C29.1642 35.6723 29.9906 35.9363 30.7471 35.9363C31.5037 35.9363 31.9023 34.9398 32.279 33.7826Z" fill="#403D3D"/>
</g>
<defs>
<clipPath id="clip0_2_7">
<rect width="48" height="48" fill="white"/>
</clipPath>
</defs>
</svg>
