<svg width="48" height="48" viewBox="0 0 48 48" fill="none" xmlns="http://www.w3.org/2000/svg">
<g clip-path="url(#clip0_136_203)">
<path d="M46.9407 22.9371C46.9449 22.9371 46.948 22.9371 46.9522 22.9371C47.2446 22.9371 47.5233 22.8145 47.7213 22.5996C47.9225 22.3817 48.022 22.0893 47.9958 21.7938C46.9438 10.2222 37.7829 1.05753 26.2109 0.00337687C25.9175 -0.0196763 25.622 0.07568 25.404 0.277919C25.1861 0.47911 25.0646 0.763083 25.0677 1.05963C25.25 16.4382 27.2786 22.7222 46.9407 22.9371ZM46.9407 25.0621C27.2786 25.2769 25.2511 31.561 25.0687 46.9396C25.0656 47.2361 25.1871 47.5201 25.4051 47.7213C25.6 47.9005 25.8546 48 26.1166 48C26.148 48 26.1805 47.999 26.2119 47.9958C37.7839 46.9417 46.9449 37.778 47.9958 26.2054C48.022 25.9099 47.9235 25.6175 47.7213 25.3995C47.5191 25.1816 47.2372 25.0737 46.9407 25.0621ZM21.7189 0.00861634C10.1836 1.09316 1.05193 10.2557 0.00516839 21.7959C-0.0210268 22.0914 0.0774673 22.3838 0.279694 22.6017C0.47773 22.8165 0.757495 22.9381 1.04879 22.9381C1.05298 22.9381 1.05717 22.9381 1.06136 22.9381C20.6585 22.7128 22.6818 16.4319 22.8663 1.06382C22.8694 0.767274 22.7468 0.482253 22.5289 0.281062C22.3088 0.0798715 22.0144 -0.0186283 21.7189 0.00861634ZM1.06031 25.0611C0.734443 25.0244 0.478778 25.1795 0.278647 25.3975C0.0774674 25.6154 -0.0220746 25.9078 0.00412066 26.2033C1.05088 37.7435 10.1836 46.906 21.7189 47.9906C21.7514 47.9937 21.7849 47.9948 21.8174 47.9948C22.0793 47.9948 22.3329 47.8963 22.5278 47.7171C22.7458 47.5159 22.8683 47.2309 22.8652 46.9343C22.6808 31.5673 20.6585 25.2864 1.06031 25.0611Z" fill="#FAFAFA"/>
</g>
<defs>
<clipPath id="clip0_136_203">
<rect width="48" height="48" fill="white"/>
</clipPath>
</defs>
</svg>
