<svg width="88" height="83" viewBox="0 0 88 83" fill="none" xmlns="http://www.w3.org/2000/svg">
<path d="M43.7568 2L55.0425 30.2142" stroke="#FAFAFA" stroke-width="3" stroke-linecap="round"/>
<path d="M43.7568 2V43.757" stroke="#FAFAFA" stroke-width="3" stroke-linecap="round"/>
<path d="M43.7568 43.7571L85.5139 31.3428" stroke="#FAFAFA" stroke-width="3" stroke-linecap="round"/>
<path d="M2 31.3425L43.757 43.7568" stroke="#FAFAFA" stroke-width="3" stroke-linecap="round"/>
<path d="M17.8 80.9999L43.7571 43.7571" stroke="#FAFAFA" stroke-width="3" stroke-linecap="round"/>
<path d="M69.7141 80.9999L43.757 43.7571" stroke="#FAFAFA" stroke-width="3" stroke-linecap="round"/>
<path d="M43.7568 2L32.4712 30.2142" stroke="#FAFAFA" stroke-width="3" stroke-linecap="round"/>
<path d="M85.5142 31.3425L55.0428 30.214" stroke="#FAFAFA" stroke-width="3" stroke-linecap="round"/>
<path d="M2 31.3425L32.4714 30.214" stroke="#FAFAFA" stroke-width="3" stroke-linecap="round"/>
<path d="M85.5142 31.3425L62.9428 51.6568" stroke="#FAFAFA" stroke-width="3" stroke-linecap="round"/>
<path d="M2 31.3425L24.5714 51.6568" stroke="#FAFAFA" stroke-width="3" stroke-linecap="round"/>
<path d="M62.9426 51.6573L69.714 81.0001" stroke="#FAFAFA" stroke-width="3" stroke-linecap="round"/>
<path d="M24.5713 51.6573L17.7999 81.0001" stroke="#FAFAFA" stroke-width="3" stroke-linecap="round"/>
<path d="M43.7568 65.2001L69.7139 81" stroke="#FAFAFA" stroke-width="3" stroke-linecap="round"/>
<path d="M43.7568 65.2001L17.7998 81" stroke="#FAFAFA" stroke-width="3" stroke-linecap="round"/>
</svg>
