<svg width="88" height="83" viewBox="0 0 88 83" fill="none" xmlns="http://www.w3.org/2000/svg">
<path d="M43.7568 2L55.0425 30.2142" stroke="#403D3D" stroke-width="3" stroke-linecap="round"/>
<path d="M43.7568 2V43.757" stroke="#403D3D" stroke-width="3" stroke-linecap="round"/>
<path d="M43.7568 43.7568L85.5139 31.3426" stroke="#403D3D" stroke-width="3" stroke-linecap="round"/>
<path d="M2 31.3428L43.757 43.757" stroke="#403D3D" stroke-width="3" stroke-linecap="round"/>
<path d="M17.8 81L43.7571 43.7572" stroke="#403D3D" stroke-width="3" stroke-linecap="round"/>
<path d="M69.7141 81L43.757 43.7572" stroke="#403D3D" stroke-width="3" stroke-linecap="round"/>
<path d="M43.7568 2L32.4712 30.2142" stroke="#403D3D" stroke-width="3" stroke-linecap="round"/>
<path d="M85.5142 31.3428L55.0428 30.2142" stroke="#403D3D" stroke-width="3" stroke-linecap="round"/>
<path d="M2 31.3428L32.4714 30.2142" stroke="#403D3D" stroke-width="3" stroke-linecap="round"/>
<path d="M85.5142 31.3428L62.9428 51.657" stroke="#403D3D" stroke-width="3" stroke-linecap="round"/>
<path d="M2 31.3428L24.5714 51.657" stroke="#403D3D" stroke-width="3" stroke-linecap="round"/>
<path d="M62.9426 51.6572L69.714 81" stroke="#403D3D" stroke-width="3" stroke-linecap="round"/>
<path d="M24.5713 51.6572L17.7999 81" stroke="#403D3D" stroke-width="3" stroke-linecap="round"/>
<path d="M43.7568 65.2002L69.7139 81.0002" stroke="#403D3D" stroke-width="3" stroke-linecap="round"/>
<path d="M43.7568 65.2002L17.7998 81.0002" stroke="#403D3D" stroke-width="3" stroke-linecap="round"/>
</svg>
